#!OML:ASF F:\VICON\USERDATA\INSTALL\Justin_Nancy\Justin_Nancy.ASF
:FULLY-SPECIFIED
:DEGREES
178
root -17.9964 16.685 21.1376 1.63429 -51.5917 0.000578563
lowerback 9.73051 -1.72662 -0.420795
upperback -0.0600839 -2.20659 2.94852
thorax -5.3913 -1.04798 3.63767
lowerneck -22.7657 -3.63967 -7.59676
upperneck 18.2355 -3.29811 3.5241
head 9.71549 -1.6603 1.98467
rclavicle 6.1822e-014 1.43125e-014
rhumerus -43.9444 10.0376 -89.4881
rradius 108.891
rwrist -2.82323
rhand -11.134 23.0908
rfingers 7.12502
rthumb 14.8914 -6.35396
lclavicle 6.1822e-014 1.43125e-014
lhumerus -41.3921 -4.99298 94.4597
lradius 101.823
lwrist 22.8711
lhand -17.3065 7.89871
lfingers 7.12502
lthumb 8.93958 37.6893
rfemur -18.2075 2.10029 31.1966
rtibia 42.162
rfoot -16.6818 -13.9221
rtoes 2.57785
lfemur -13.5994 -0.189077 -15.0768
ltibia 79.2003
lfoot 10.6883 -6.02681
ltoes -10.621
179
root -18.2269 16.6892 21.3656 2.38809 -51.5414 -0.89959
lowerback 9.61255 -1.52304 0.0484664
upperback -0.072118 -1.87811 3.09418
thorax -5.36884 -0.897713 3.47585
lowerneck -22.5894 -3.78472 -7.53287
upperneck 18.0681 -3.5237 3.49277
head 9.63687 -1.76352 1.92962
rclavicle -5.40694e-014 1.59028e-014
rhumerus -45.4392 11.3398 -89.1723
rradius 111.514
rwrist -2.26525
rhand -13.1057 22.6465
rfingers 7.12502
rthumb 12.9913 -6.92903
lclavicle -5.40694e-014 1.59028e-014
lhumerus -42.1554 -5.09702 95.2129
lradius 101.993
lwrist 23.7949
lhand -17.547 7.79875
lfingers 7.12502
lthumb 8.7075 37.5991
rfemur -16.8539 1.91419 31.6621
rtibia 41.9328
rfoot -17.5102 -13.9339
rtoes 2.16644
lfemur -15.7788 0.14082 -14.1677
ltibia 80.3743
lfoot 9.59596 -5.22916
ltoes -8.07615
180
root -18.4578 16.7054 21.6179 3.19784 -51.7891 -1.98975
lowerback 9.34163 -1.23357 0.881963
upperback 0.00571225 -1.40717 3.18339
thorax -5.17978 -0.689524 3.02226
lowerneck -22.438 -3.93381 -7.56353
upperneck 17.8993 -3.78996 3.76119
head 9.57251 -1.85697 1.98972
rclavicle 1.2921e-014 -1.03368e-014
rhumerus -45.8258 11.6774 -88.9874
rradius 113.044
rwrist -1.79848
rhand -14.7322 22.549
rfingers 7.12502
rthumb 11.423 -7.11986
lclavicle 1.2921e-014 -1.03368e-014
lhumerus -42.8385 -5.42345 95.828
lradius 102.226
lwrist 24.5637
lhand -17.4137 7.7983
lfingers 7.12502
lthumb 8.83614 37.5933
rfemur -15.2343 2.11334 32.1356
rtibia 41.5249
rfoot -18.1339 -13.8707
rtoes 1.98317
lfemur -17.5953 0.680839 -13.422
ltibia 81.1711
lfoot 8.15332 -4.34463
ltoes -7.34827
181
root -18.6726 16.7114 21.8041 3.87447 -51.4364 -2.47002
lowerback 9.40941 -1.07484 0.776486
upperback -0.173973 -1.19028 3.3708
thorax -5.41058 -0.574864 3.25642
lowerneck -22.2522 -4.19932 -7.8833
upperneck 17.5954 -4.17558 4.2747
head 9.47586 -1.99716 2.16457
rclavicle 1.14599e-013 2.06736e-014
rhumerus -45.8094 11.7312 -88.7431
rradius 114.372
rwrist -1.94123
rhand -15.1041 22.7053
rfingers 7.12502
rthumb 11.0643 -6.98302
lclavicle 1.14599e-013 2.06736e-014
lhumerus -43.5175 -5.79672 96.4703
lradius 102.517
lwrist 25.1602
lhand -17.3289 7.30693
lfingers 7.12502
lthumb 8.918 37.0985
rfemur -14.164 2.24383 32.5176
rtibia 41.2495
rfoot -18.7437 -13.845
rtoes 3.30953
lfemur -20.0144 1.154 -12.6361
ltibia 81.7629
lfoot 6.60644 -4.5508
ltoes -9.33896
182
root -18.8932 16.7336 22.009 5.22736 -51.3033 -3.89401
lowerback 9.3636 -0.808042 1.47283
upperback -0.294764 -0.746051 3.60205
thorax -5.54031 -0.372257 3.04672
lowerneck -22.2285 -4.53303 -8.26807
upperneck 17.5521 -4.66594 4.95379
head 9.51668 -2.17248 2.39179
rclavicle 4.95968e-014 1.98785e-014
rhumerus -42.6961 9.85817 -88.8241
rradius 113.056
rwrist -1.88999
rhand -13.6387 23.1911
rfingers 7.12502
rthumb 12.4774 -6.41638
lclavicle 4.95968e-014 1.98785e-014
lhumerus -44.2097 -6.63337 97.154
lradius 102.918
lwrist 26.0094
lhand -17.3388 7.14925
lfingers 7.12502
lthumb 8.90841 36.9412
rfemur -13.148 2.5921 33.4192
rtibia 41.3854
rfoot -19.7499 -13.2045
rtoes 6.22579
lfemur -22.1832 1.7974 -11.3444
ltibia 82.1172
lfoot 4.96866 -4.62508
ltoes -10.234
183
root -19.0935 16.7451 22.1687 6.79819 -51.4363 -5.29366
lowerback 9.53521 -0.373712 1.86392
upperback -0.546934 -0.0963848 3.8092
thorax -5.93107 -0.059819 2.96113
lowerneck -22.223 -4.88455 -8.62256
upperneck 17.5429 -5.18061 5.58441
head 9.57846 -2.36275 2.59302
rclavicle -5.63555e-014 -3.73715e-014
rhumerus -41.3611 8.78945 -88.8054
rradius 113.422
rwrist -2.69095
rhand -12.9648 23.0278
rfingers 7.12502
rthumb 13.1272 -6.53905
lclavicle -5.63555e-014 -3.73715e-014
lhumerus -44.9224 -7.62833 97.7045
lradius 103.391
lwrist 26.6421
lhand -16.7618 7.39659
lfingers 7.12502
lthumb 9.46517 37.164
rfemur -12.5273 3.66714 34.4159
rtibia 41.2533
rfoot -20.2733 -12.3245
rtoes 10.2751
lfemur -24.8203 2.95105 -10.0411
ltibia 82.0749
lfoot 3.59501 -4.92598
ltoes -12.2988
184
root -19.2246 16.719 22.2556 7.62624 -51.446 -5.53878
lowerback 10.7313 0.0596108 1.29862
upperback -1.10096 0.490863 3.85101
thorax -7.2276 0.257131 3.26159
lowerneck -22.1956 -5.23933 -8.81098
upperneck 17.3211 -5.71802 6.09107
head 9.55996 -2.56575 2.71842
rclavicle 2.17669e-014 2.3059e-014
rhumerus -40.9014 8.27056 -88.9423
rradius 114.32
rwrist -3.71408
rhand -12.87 23.214
rfingers 7.12502
rthumb 13.2185 -6.34688
lclavicle 2.17669e-014 2.3059e-014
lhumerus -45.6347 -8.50088 98.1063
lradius 103.799
lwrist 26.5894
lhand -15.8838 7.58156
lfingers 7.12502
lthumb 10.3123 37.3087
rfemur -12.9593 4.62284 34.8916
rtibia 41.3655
rfoot -19.0503 -12.6697
rtoes 9.5593
lfemur -28.4831 4.12113 -9.60224
ltibia 82.0055
lfoot 2.76729 -5.34145
ltoes -14.6967
185
root -19.564 16.8384 22.6514 8.3056 -51.0613 -5.57041
lowerback 7.72735 0.0378486 2.55817
upperback -0.993732 0.452982 3.5838
thorax -5.38921 0.18888 2.24475
lowerneck -21.8527 -5.43795 -9.07029
upperneck 17.0912 -6.03562 6.55152
head 9.46992 -2.68448 2.87643
rclavicle 1.43224e-013 3.02153e-014
rhumerus -41.6454 8.56764 -89.2061
rradius 115.701
rwrist -4.78197
rhand -13.0301 23.0976
rfingers 7.12502
rthumb 13.0642 -6.47326
lclavicle 1.43224e-013 3.02153e-014
lhumerus -46.74 -8.79952 98.5434
lradius 104.207
lwrist 26.5918
lhand -15.5754 7.4239
lfingers 7.12502
lthumb 10.6097 37.1361
rfemur -11.1305 2.82655 34.3428
rtibia 40.7279
rfoot -18.2241 -12.2469
rtoes 0.164803
lfemur -28.3636 3.91805 -10.4433
ltibia 80.0343
lfoot 0.195879 -3.927
ltoes -17.3884
186
root -19.7934 16.9037 22.9094 10.206 -50.9661 -6.12892
lowerback 6.10947 0.300297 3.38378
upperback -1.54269 0.808945 3.51727
thorax -5.04176 0.339181 1.67297
lowerneck -21.433 -5.62207 -9.40553
upperneck 16.803 -6.3178 7.03219
head 9.34923 -2.79245 3.05985
rclavicle 6.35117e-014 -1.27222e-014
rhumerus -44.3238 9.40682 -89.1022
rradius 118.425
rwrist -5.83449
rhand -13.7386 22.9666
rfingers 7.12502
rthumb 12.3812 -6.6468
lclavicle 6.35117e-014 -1.27222e-014
lhumerus -47.8959 -9.10971 99.0954
lradius 104.631
lwrist 26.7387
lhand -14.9853 7.53223
lfingers 7.12502
lthumb 11.179 37.2144
rfemur -11.5419 2.73235 34.3661
rtibia 40.2791
rfoot -15.8865 -12.2626
rtoes -8.348
lfemur -31.2546 4.35405 -10.6952
ltibia 78.6746
lfoot -0.928126 -3.42888
ltoes -23.0253
187
root -20.0214 16.9805 23.1911 9.05115 -51.3467 -6.67097
lowerback 7.51249 0.691073 4.31684
upperback -1.1999 1.47149 3.27526
thorax -5.45446 0.630088 0.813985
lowerneck -21.3707 -5.9223 -9.34906
upperneck 16.7299 -6.80998 7.28239
head 9.36494 -2.99142 3.063
rclavicle -2.19657e-014 -2.46493e-014
rhumerus -44.8715 9.24153 -89.0258
rradius 119.423
rwrist -6.51019
rhand -14.5033 22.9497
rfingers 7.12502
rthumb 11.6438 -6.70674
lclavicle -2.19657e-014 -2.46493e-014
lhumerus -48.9566 -9.80146 99.4941
lradius 104.89
lwrist 26.5584
lhand -14.3355 7.15232
lfingers 7.12502
lthumb 11.8056 36.7996
rfemur -8.15333 2.41819 34.2447
rtibia 39.2022
rfoot -13.9047 -11.2218
rtoes -13.4865
lfemur -30.0502 4.53293 -10.9026
ltibia 76.4864
lfoot -2.4242 -2.82444
ltoes -32.9684
